<svg xmlns="http://www.w3.org/2000/svg" xmlns:xlink="http://www.w3.org/1999/xlink" width="160" zoomAndPan="magnify" viewBox="0 0 120 119.999999" height="160" preserveAspectRatio="xMidYMid meet" version="1.0"><defs><g/><clipPath id="06f992f9cb"><path d="M 49 16.09375 L 69 16.09375 L 69 31 L 49 31 Z M 49 16.09375 " clip-rule="nonzero"/></clipPath><clipPath id="9986753f37"><path d="M 38 32 L 81.964844 32 L 81.964844 75 L 38 75 Z M 38 32 " clip-rule="nonzero"/></clipPath><clipPath id="3dc6aaf357"><path d="M 34 55 L 56 55 L 56 76.84375 L 34 76.84375 Z M 34 55 " clip-rule="nonzero"/></clipPath></defs><g clip-path="url(#06f992f9cb)"><path fill="#1c486f" d="M 51.089844 30.535156 C 51.894531 30.535156 52.546875 29.882812 52.546875 29.078125 L 52.546875 26.253906 C 52.546875 22.605469 55.523438 19.628906 59.183594 19.628906 C 62.847656 19.628906 65.820312 22.605469 65.820312 26.253906 L 65.820312 29.078125 C 65.820312 29.882812 66.476562 30.535156 67.28125 30.535156 C 68.085938 30.535156 68.738281 29.882812 68.738281 29.078125 L 68.738281 26.652344 C 68.738281 21.554688 64.910156 17.074219 59.8125 16.738281 C 54.273438 16.375 49.628906 20.785156 49.628906 26.253906 L 49.628906 29.078125 C 49.628906 29.882812 50.285156 30.535156 51.089844 30.535156 Z M 51.089844 30.535156 " fill-opacity="1" fill-rule="nonzero"/></g><g clip-path="url(#9986753f37)"><path fill="#ef8121" d="M 81.753906 68.445312 L 78.546875 37.242188 C 78.292969 34.757812 76.203125 32.878906 73.707031 32.878906 L 44.660156 32.878906 C 42.164062 32.878906 40.078125 34.769531 39.820312 37.242188 L 39.015625 45.011719 C 38.480469 50.226562 43.4375 54.296875 48.441406 52.769531 L 51.160156 51.941406 C 54.25 50.996094 57.703125 52.558594 58.914062 55.988281 C 59.335938 57.179688 59.277344 58.484375 58.902344 59.699219 L 57.703125 63.617188 C 56.046875 69.03125 60.09375 74.5 65.75 74.5 L 76.296875 74.5 C 79.550781 74.488281 82.09375 71.675781 81.753906 68.445312 Z M 81.753906 68.445312 " fill-opacity="1" fill-rule="nonzero"/></g><g clip-path="url(#3dc6aaf357)"><path fill="#1c486f" d="M 52.183594 55.277344 L 36.472656 60.070312 C 34.1875 60.769531 34.023438 63.945312 36.226562 64.875 L 39.972656 66.453125 C 41.957031 67.292969 43.542969 68.867188 44.382812 70.859375 L 45.957031 74.605469 C 46.890625 76.808594 50.0625 76.648438 50.761719 74.359375 L 55.554688 58.648438 C 56.199219 56.582031 54.261719 54.648438 52.183594 55.277344 Z M 52.183594 55.277344 " fill-opacity="1" fill-rule="nonzero"/></g><g fill="#ef8121" fill-opacity="0.4"><g transform="translate(19.63277, 99.155878)"><g><path d="M 5.46875 0.1875 C 3.707031 0.1875 2.429688 -0.25 1.640625 -1.125 C 0.859375 -2 0.46875 -3.40625 0.46875 -5.34375 L 0.46875 -7.25 L 4.296875 -7.25 L 4.296875 -4.828125 C 4.296875 -3.867188 4.601562 -3.390625 5.21875 -3.390625 C 5.5625 -3.390625 5.800781 -3.488281 5.9375 -3.6875 C 6.070312 -3.894531 6.140625 -4.238281 6.140625 -4.71875 C 6.140625 -5.351562 6.0625 -5.875 5.90625 -6.28125 C 5.757812 -6.695312 5.566406 -7.046875 5.328125 -7.328125 C 5.097656 -7.609375 4.6875 -8.039062 4.09375 -8.625 L 2.421875 -10.296875 C 1.117188 -11.554688 0.46875 -12.957031 0.46875 -14.5 C 0.46875 -16.15625 0.847656 -17.414062 1.609375 -18.28125 C 2.367188 -19.144531 3.476562 -19.578125 4.9375 -19.578125 C 6.6875 -19.578125 7.941406 -19.113281 8.703125 -18.1875 C 9.472656 -17.257812 9.859375 -15.8125 9.859375 -13.84375 L 5.921875 -13.84375 L 5.890625 -15.171875 C 5.890625 -15.429688 5.816406 -15.632812 5.671875 -15.78125 C 5.535156 -15.9375 5.335938 -16.015625 5.078125 -16.015625 C 4.773438 -16.015625 4.546875 -15.929688 4.390625 -15.765625 C 4.242188 -15.597656 4.171875 -15.367188 4.171875 -15.078125 C 4.171875 -14.453125 4.535156 -13.800781 5.265625 -13.125 L 7.515625 -10.953125 C 8.046875 -10.441406 8.484375 -9.957031 8.828125 -9.5 C 9.171875 -9.039062 9.445312 -8.5 9.65625 -7.875 C 9.875 -7.25 9.984375 -6.503906 9.984375 -5.640625 C 9.984375 -3.734375 9.628906 -2.285156 8.921875 -1.296875 C 8.222656 -0.304688 7.070312 0.1875 5.46875 0.1875 Z M 5.46875 0.1875 "/></g></g></g><g fill="#ef8121" fill-opacity="0.4"><g transform="translate(30.043176, 99.155878)"><g><path d="M 0.796875 -19.5 L 4.859375 -19.5 L 4.859375 -14.90625 C 5.273438 -16.101562 6.078125 -16.703125 7.265625 -16.703125 C 8.378906 -16.703125 9.222656 -16.347656 9.796875 -15.640625 C 10.367188 -14.929688 10.65625 -13.960938 10.65625 -12.734375 L 10.65625 0 L 6.703125 0 L 6.703125 -12.484375 C 6.703125 -12.847656 6.617188 -13.140625 6.453125 -13.359375 C 6.285156 -13.585938 6.046875 -13.703125 5.734375 -13.703125 C 5.460938 -13.703125 5.25 -13.582031 5.09375 -13.34375 C 4.9375 -13.113281 4.859375 -12.835938 4.859375 -12.515625 L 4.859375 0 L 0.796875 0 Z M 0.796875 -19.5 "/></g></g></g><g fill="#ef8121" fill-opacity="0.4"><g transform="translate(41.447197, 99.155878)"><g><path d="M 5.59375 0.1875 C 2.300781 0.1875 0.65625 -1.519531 0.65625 -4.9375 L 0.65625 -11.578125 C 0.65625 -13.148438 1.09375 -14.394531 1.96875 -15.3125 C 2.851562 -16.238281 4.0625 -16.703125 5.59375 -16.703125 C 7.132812 -16.703125 8.34375 -16.238281 9.21875 -15.3125 C 10.101562 -14.394531 10.546875 -13.148438 10.546875 -11.578125 L 10.546875 -4.9375 C 10.546875 -1.519531 8.894531 0.1875 5.59375 0.1875 Z M 5.59375 -2.875 C 5.914062 -2.875 6.148438 -2.984375 6.296875 -3.203125 C 6.453125 -3.429688 6.53125 -3.738281 6.53125 -4.125 L 6.53125 -12.21875 C 6.53125 -13.175781 6.21875 -13.65625 5.59375 -13.65625 C 4.976562 -13.65625 4.671875 -13.175781 4.671875 -12.21875 L 4.671875 -4.125 C 4.671875 -3.738281 4.742188 -3.429688 4.890625 -3.203125 C 5.046875 -2.984375 5.28125 -2.875 5.59375 -2.875 Z M 5.59375 -2.875 "/></g></g></g><g fill="#ef8121" fill-opacity="0.4"><g transform="translate(52.670564, 99.155878)"><g><path d="M 0.796875 -16.53125 L 4.8125 -16.53125 L 4.8125 -15.640625 C 5.382812 -16.347656 6.175781 -16.703125 7.1875 -16.703125 C 8.457031 -16.703125 9.34375 -16.273438 9.84375 -15.421875 C 10.351562 -14.566406 10.609375 -13.378906 10.609375 -11.859375 L 10.609375 -5.734375 C 10.609375 -4.441406 10.53125 -3.382812 10.375 -2.5625 C 10.226562 -1.738281 9.898438 -1.070312 9.390625 -0.5625 C 8.878906 -0.0625 8.101562 0.1875 7.0625 0.1875 C 6.070312 0.1875 5.320312 -0.09375 4.8125 -0.65625 L 4.8125 3.296875 L 0.796875 3.296875 Z M 5.75 -2.890625 C 6.113281 -2.890625 6.347656 -3.054688 6.453125 -3.390625 C 6.554688 -3.722656 6.609375 -4.203125 6.609375 -4.828125 L 6.609375 -11.859375 C 6.609375 -12.429688 6.554688 -12.863281 6.453125 -13.15625 C 6.347656 -13.457031 6.109375 -13.609375 5.734375 -13.609375 C 5.117188 -13.609375 4.8125 -13.039062 4.8125 -11.90625 L 4.8125 -4.65625 C 4.8125 -4.09375 4.875 -3.65625 5 -3.34375 C 5.125 -3.039062 5.375 -2.890625 5.75 -2.890625 Z M 5.75 -2.890625 "/></g></g></g><g fill="#ef8121" fill-opacity="1"><g transform="translate(19.63277, 99.155878)"><g><path d="M 5.46875 0.1875 C 3.707031 0.1875 2.429688 -0.25 1.640625 -1.125 C 0.859375 -2 0.46875 -3.40625 0.46875 -5.34375 L 0.46875 -7.25 L 4.296875 -7.25 L 4.296875 -4.828125 C 4.296875 -3.867188 4.601562 -3.390625 5.21875 -3.390625 C 5.5625 -3.390625 5.800781 -3.488281 5.9375 -3.6875 C 6.070312 -3.894531 6.140625 -4.238281 6.140625 -4.71875 C 6.140625 -5.351562 6.0625 -5.875 5.90625 -6.28125 C 5.757812 -6.695312 5.566406 -7.046875 5.328125 -7.328125 C 5.097656 -7.609375 4.6875 -8.039062 4.09375 -8.625 L 2.421875 -10.296875 C 1.117188 -11.554688 0.46875 -12.957031 0.46875 -14.5 C 0.46875 -16.15625 0.847656 -17.414062 1.609375 -18.28125 C 2.367188 -19.144531 3.476562 -19.578125 4.9375 -19.578125 C 6.6875 -19.578125 7.941406 -19.113281 8.703125 -18.1875 C 9.472656 -17.257812 9.859375 -15.8125 9.859375 -13.84375 L 5.921875 -13.84375 L 5.890625 -15.171875 C 5.890625 -15.429688 5.816406 -15.632812 5.671875 -15.78125 C 5.535156 -15.9375 5.335938 -16.015625 5.078125 -16.015625 C 4.773438 -16.015625 4.546875 -15.929688 4.390625 -15.765625 C 4.242188 -15.597656 4.171875 -15.367188 4.171875 -15.078125 C 4.171875 -14.453125 4.535156 -13.800781 5.265625 -13.125 L 7.515625 -10.953125 C 8.046875 -10.441406 8.484375 -9.957031 8.828125 -9.5 C 9.171875 -9.039062 9.445312 -8.5 9.65625 -7.875 C 9.875 -7.25 9.984375 -6.503906 9.984375 -5.640625 C 9.984375 -3.734375 9.628906 -2.285156 8.921875 -1.296875 C 8.222656 -0.304688 7.070312 0.1875 5.46875 0.1875 Z M 5.46875 0.1875 "/></g></g></g><g fill="#ef8121" fill-opacity="1"><g transform="translate(30.043176, 99.155878)"><g><path d="M 0.796875 -19.5 L 4.859375 -19.5 L 4.859375 -14.90625 C 5.273438 -16.101562 6.078125 -16.703125 7.265625 -16.703125 C 8.378906 -16.703125 9.222656 -16.347656 9.796875 -15.640625 C 10.367188 -14.929688 10.65625 -13.960938 10.65625 -12.734375 L 10.65625 0 L 6.703125 0 L 6.703125 -12.484375 C 6.703125 -12.847656 6.617188 -13.140625 6.453125 -13.359375 C 6.285156 -13.585938 6.046875 -13.703125 5.734375 -13.703125 C 5.460938 -13.703125 5.25 -13.582031 5.09375 -13.34375 C 4.9375 -13.113281 4.859375 -12.835938 4.859375 -12.515625 L 4.859375 0 L 0.796875 0 Z M 0.796875 -19.5 "/></g></g></g><g fill="#ef8121" fill-opacity="1"><g transform="translate(41.447197, 99.155878)"><g><path d="M 5.59375 0.1875 C 2.300781 0.1875 0.65625 -1.519531 0.65625 -4.9375 L 0.65625 -11.578125 C 0.65625 -13.148438 1.09375 -14.394531 1.96875 -15.3125 C 2.851562 -16.238281 4.0625 -16.703125 5.59375 -16.703125 C 7.132812 -16.703125 8.34375 -16.238281 9.21875 -15.3125 C 10.101562 -14.394531 10.546875 -13.148438 10.546875 -11.578125 L 10.546875 -4.9375 C 10.546875 -1.519531 8.894531 0.1875 5.59375 0.1875 Z M 5.59375 -2.875 C 5.914062 -2.875 6.148438 -2.984375 6.296875 -3.203125 C 6.453125 -3.429688 6.53125 -3.738281 6.53125 -4.125 L 6.53125 -12.21875 C 6.53125 -13.175781 6.21875 -13.65625 5.59375 -13.65625 C 4.976562 -13.65625 4.671875 -13.175781 4.671875 -12.21875 L 4.671875 -4.125 C 4.671875 -3.738281 4.742188 -3.429688 4.890625 -3.203125 C 5.046875 -2.984375 5.28125 -2.875 5.59375 -2.875 Z M 5.59375 -2.875 "/></g></g></g><g fill="#ef8121" fill-opacity="1"><g transform="translate(52.670564, 99.155878)"><g><path d="M 0.796875 -16.53125 L 4.8125 -16.53125 L 4.8125 -15.640625 C 5.382812 -16.347656 6.175781 -16.703125 7.1875 -16.703125 C 8.457031 -16.703125 9.34375 -16.273438 9.84375 -15.421875 C 10.351562 -14.566406 10.609375 -13.378906 10.609375 -11.859375 L 10.609375 -5.734375 C 10.609375 -4.441406 10.53125 -3.382812 10.375 -2.5625 C 10.226562 -1.738281 9.898438 -1.070312 9.390625 -0.5625 C 8.878906 -0.0625 8.101562 0.1875 7.0625 0.1875 C 6.070312 0.1875 5.320312 -0.09375 4.8125 -0.65625 L 4.8125 3.296875 L 0.796875 3.296875 Z M 5.75 -2.890625 C 6.113281 -2.890625 6.347656 -3.054688 6.453125 -3.390625 C 6.554688 -3.722656 6.609375 -4.203125 6.609375 -4.828125 L 6.609375 -11.859375 C 6.609375 -12.429688 6.554688 -12.863281 6.453125 -13.15625 C 6.347656 -13.457031 6.109375 -13.609375 5.734375 -13.609375 C 5.117188 -13.609375 4.8125 -13.039062 4.8125 -11.90625 L 4.8125 -4.65625 C 4.8125 -4.09375 4.875 -3.65625 5 -3.34375 C 5.125 -3.039062 5.375 -2.890625 5.75 -2.890625 Z M 5.75 -2.890625 "/></g></g></g><g fill="#1c486f" fill-opacity="1"><g transform="translate(67.717439, 99.155878)"><g><path d="M 0.859375 0 L 0.859375 -19.390625 L 4.859375 -19.390625 L 6.640625 -10.109375 L 6.640625 -19.390625 L 10.390625 -19.390625 L 10.390625 0 L 6.59375 0 L 4.65625 -9.703125 L 4.65625 0 Z M 0.859375 0 "/></g></g></g><g fill="#1c486f" fill-opacity="1"><g transform="translate(78.963385, 99.155878)"><g><path d="M 5.421875 0.1875 C 3.722656 0.1875 2.503906 -0.28125 1.765625 -1.21875 C 1.023438 -2.15625 0.65625 -3.546875 0.65625 -5.390625 L 0.65625 -12.03125 C 0.65625 -13.550781 1.09375 -14.707031 1.96875 -15.5 C 2.84375 -16.300781 4.0625 -16.703125 5.625 -16.703125 C 8.800781 -16.703125 10.390625 -15.144531 10.390625 -12.03125 L 10.390625 -10.84375 C 10.390625 -9.632812 10.375 -8.65625 10.34375 -7.90625 L 4.609375 -7.90625 L 4.609375 -4.703125 C 4.609375 -4.128906 4.664062 -3.679688 4.78125 -3.359375 C 4.90625 -3.035156 5.160156 -2.875 5.546875 -2.875 C 5.847656 -2.875 6.0625 -2.960938 6.1875 -3.140625 C 6.320312 -3.316406 6.398438 -3.519531 6.421875 -3.75 C 6.441406 -3.988281 6.453125 -4.332031 6.453125 -4.78125 L 6.453125 -6.390625 L 10.390625 -6.390625 L 10.390625 -5.4375 C 10.390625 -3.507812 10.015625 -2.085938 9.265625 -1.171875 C 8.523438 -0.265625 7.242188 0.1875 5.421875 0.1875 Z M 6.453125 -9.859375 L 6.453125 -11.984375 C 6.453125 -13.171875 6.160156 -13.765625 5.578125 -13.765625 C 4.910156 -13.765625 4.578125 -13.171875 4.578125 -11.984375 L 4.578125 -9.859375 Z M 6.453125 -9.859375 "/></g></g></g><g fill="#1c486f" fill-opacity="1"><g transform="translate(89.983509, 99.155878)"><g><path d="M 5.328125 0.1875 C 2.054688 0.1875 0.421875 -1.46875 0.421875 -4.78125 L 0.453125 -6.09375 L 4.40625 -6.09375 L 4.421875 -4.15625 C 4.421875 -3.757812 4.492188 -3.457031 4.640625 -3.25 C 4.796875 -3.050781 5.046875 -2.953125 5.390625 -2.953125 C 5.921875 -2.953125 6.1875 -3.382812 6.1875 -4.25 C 6.1875 -4.875 6.0625 -5.367188 5.8125 -5.734375 C 5.5625 -6.097656 5.164062 -6.484375 4.625 -6.890625 L 2.53125 -8.515625 C 1.800781 -9.066406 1.28125 -9.640625 0.96875 -10.234375 C 0.65625 -10.828125 0.5 -11.664062 0.5 -12.75 C 0.5 -13.59375 0.71875 -14.3125 1.15625 -14.90625 C 1.601562 -15.507812 2.195312 -15.957031 2.9375 -16.25 C 3.675781 -16.550781 4.492188 -16.703125 5.390625 -16.703125 C 8.597656 -16.703125 10.203125 -15.109375 10.203125 -11.921875 L 10.203125 -11.609375 L 6.125 -11.609375 L 6.125 -12.234375 C 6.125 -12.628906 6.054688 -12.960938 5.921875 -13.234375 C 5.796875 -13.515625 5.582031 -13.65625 5.28125 -13.65625 C 5.007812 -13.65625 4.800781 -13.578125 4.65625 -13.421875 C 4.519531 -13.265625 4.453125 -13.050781 4.453125 -12.78125 C 4.453125 -12.175781 4.679688 -11.707031 5.140625 -11.375 L 7.59375 -9.59375 C 8.457031 -8.945312 9.125 -8.242188 9.59375 -7.484375 C 10.0625 -6.722656 10.296875 -5.765625 10.296875 -4.609375 C 10.296875 -3.066406 9.859375 -1.878906 8.984375 -1.046875 C 8.109375 -0.222656 6.890625 0.1875 5.328125 0.1875 Z M 5.328125 0.1875 "/></g></g></g><g fill="#1c486f" fill-opacity="1"><g transform="translate(100.710063, 99.155878)"><g><path d="M 4.203125 0.1875 C 3.160156 0.1875 2.441406 -0.03125 2.046875 -0.46875 C 1.660156 -0.90625 1.46875 -1.609375 1.46875 -2.578125 L 1.46875 -12.890625 L 0.359375 -12.890625 L 0.359375 -15.890625 L 1.46875 -15.890625 L 1.46875 -19.390625 L 5.3125 -19.390625 L 5.3125 -15.890625 L 6.4375 -15.890625 L 6.4375 -12.890625 L 5.3125 -12.890625 L 5.3125 -3.609375 C 5.3125 -3.328125 5.332031 -3.117188 5.375 -2.984375 C 5.414062 -2.847656 5.535156 -2.78125 5.734375 -2.78125 C 5.878906 -2.78125 6.019531 -2.785156 6.15625 -2.796875 C 6.289062 -2.816406 6.382812 -2.828125 6.4375 -2.828125 L 6.4375 -0.109375 C 6.207031 -0.046875 5.878906 0.015625 5.453125 0.078125 C 5.023438 0.148438 4.609375 0.1875 4.203125 0.1875 Z M 4.203125 0.1875 "/></g></g></g></svg>