<svg xmlns="http://www.w3.org/2000/svg" xmlns:xlink="http://www.w3.org/1999/xlink" width="130" zoomAndPan="magnify" viewBox="0 0 97.5 30.000001" height="40" preserveAspectRatio="xMidYMid meet" version="1.0"><defs><g/><clipPath id="c4947019e4"><path d="M 8 2.363281 L 17 2.363281 L 17 9 L 8 9 Z M 8 2.363281 " clip-rule="nonzero"/></clipPath><clipPath id="dde4cedb98"><path d="M 4 9 L 22.515625 9 L 22.515625 28 L 4 28 Z M 4 9 " clip-rule="nonzero"/></clipPath><clipPath id="d55bbaac2a"><path d="M 2.191406 18 L 12 18 L 12 28 L 2.191406 28 Z M 2.191406 18 " clip-rule="nonzero"/></clipPath></defs><g clip-path="url(#c4947019e4)"><path fill="#1c486f" d="M 9.441406 8.480469 C 9.78125 8.480469 10.058594 8.203125 10.058594 7.863281 L 10.058594 6.667969 C 10.058594 5.121094 11.316406 3.863281 12.867188 3.863281 C 14.417969 3.863281 15.679688 5.121094 15.679688 6.667969 L 15.679688 7.863281 C 15.679688 8.203125 15.953125 8.480469 16.296875 8.480469 C 16.636719 8.480469 16.914062 8.203125 16.914062 7.863281 L 16.914062 6.835938 C 16.914062 4.675781 15.292969 2.78125 13.132812 2.636719 C 10.789062 2.484375 8.824219 4.351562 8.824219 6.667969 L 8.824219 7.863281 C 8.824219 8.203125 9.101562 8.480469 9.441406 8.480469 Z M 9.441406 8.480469 " fill-opacity="1" fill-rule="nonzero"/></g><g clip-path="url(#dde4cedb98)"><path fill="#ef8121" d="M 22.421875 24.527344 L 21.066406 11.320312 C 20.957031 10.269531 20.074219 9.472656 19.015625 9.472656 L 6.71875 9.472656 C 5.664062 9.472656 4.777344 10.273438 4.671875 11.320312 L 4.328125 14.609375 C 4.101562 16.816406 6.203125 18.539062 8.320312 17.890625 L 9.46875 17.542969 C 10.777344 17.140625 12.242188 17.804688 12.753906 19.253906 C 12.933594 19.757812 12.90625 20.3125 12.75 20.824219 L 12.242188 22.484375 C 11.539062 24.777344 13.253906 27.09375 15.648438 27.09375 L 20.113281 27.09375 C 21.488281 27.085938 22.566406 25.898438 22.421875 24.527344 Z M 22.421875 24.527344 " fill-opacity="1" fill-rule="nonzero"/></g><g clip-path="url(#d55bbaac2a)"><path fill="#1c486f" d="M 9.90625 18.953125 L 3.253906 20.984375 C 2.285156 21.28125 2.214844 22.621094 3.148438 23.019531 L 4.734375 23.683594 C 5.574219 24.039062 6.246094 24.707031 6.601562 25.550781 L 7.269531 27.136719 C 7.664062 28.070312 9.007812 28 9.300781 27.03125 L 11.332031 20.382812 C 11.605469 19.507812 10.785156 18.6875 9.90625 18.953125 Z M 9.90625 18.953125 " fill-opacity="1" fill-rule="nonzero"/></g><g fill="#ef8121" fill-opacity="0.4"><g transform="translate(26.662467, 21.990658)"><g><path d="M 4.234375 0.140625 C 2.867188 0.140625 1.878906 -0.195312 1.265625 -0.875 C 0.660156 -1.550781 0.359375 -2.640625 0.359375 -4.140625 L 0.359375 -5.609375 L 3.328125 -5.609375 L 3.328125 -3.734375 C 3.328125 -2.992188 3.5625 -2.625 4.03125 -2.625 C 4.300781 -2.625 4.488281 -2.703125 4.59375 -2.859375 C 4.695312 -3.015625 4.75 -3.28125 4.75 -3.65625 C 4.75 -4.144531 4.691406 -4.546875 4.578125 -4.859375 C 4.460938 -5.179688 4.3125 -5.453125 4.125 -5.671875 C 3.945312 -5.890625 3.628906 -6.222656 3.171875 -6.671875 L 1.875 -7.96875 C 0.863281 -8.945312 0.359375 -10.03125 0.359375 -11.21875 C 0.359375 -12.5 0.65625 -13.472656 1.25 -14.140625 C 1.84375 -14.816406 2.703125 -15.15625 3.828125 -15.15625 C 5.179688 -15.15625 6.15625 -14.796875 6.75 -14.078125 C 7.34375 -13.367188 7.640625 -12.25 7.640625 -10.71875 L 4.578125 -10.71875 L 4.5625 -11.75 C 4.5625 -11.945312 4.503906 -12.101562 4.390625 -12.21875 C 4.285156 -12.332031 4.132812 -12.390625 3.9375 -12.390625 C 3.695312 -12.390625 3.519531 -12.328125 3.40625 -12.203125 C 3.289062 -12.078125 3.234375 -11.898438 3.234375 -11.671875 C 3.234375 -11.179688 3.515625 -10.675781 4.078125 -10.15625 L 5.828125 -8.484375 C 6.234375 -8.085938 6.566406 -7.707031 6.828125 -7.34375 C 7.097656 -6.988281 7.316406 -6.570312 7.484375 -6.09375 C 7.648438 -5.613281 7.734375 -5.039062 7.734375 -4.375 C 7.734375 -2.894531 7.460938 -1.769531 6.921875 -1 C 6.378906 -0.238281 5.484375 0.140625 4.234375 0.140625 Z M 4.234375 0.140625 "/></g></g></g><g fill="#ef8121" fill-opacity="0.4"><g transform="translate(34.720306, 21.990658)"><g><path d="M 0.609375 -15.109375 L 3.765625 -15.109375 L 3.765625 -11.546875 C 4.085938 -12.472656 4.707031 -12.9375 5.625 -12.9375 C 6.488281 -12.9375 7.140625 -12.660156 7.578125 -12.109375 C 8.023438 -11.566406 8.25 -10.816406 8.25 -9.859375 L 8.25 0 L 5.1875 0 L 5.1875 -9.671875 C 5.1875 -9.953125 5.125 -10.175781 5 -10.34375 C 4.875 -10.519531 4.6875 -10.609375 4.4375 -10.609375 C 4.226562 -10.609375 4.0625 -10.519531 3.9375 -10.34375 C 3.820312 -10.164062 3.765625 -9.945312 3.765625 -9.6875 L 3.765625 0 L 0.609375 0 Z M 0.609375 -15.109375 "/></g></g></g><g fill="#ef8121" fill-opacity="0.4"><g transform="translate(43.547222, 21.990658)"><g><path d="M 4.34375 0.140625 C 1.78125 0.140625 0.5 -1.179688 0.5 -3.828125 L 0.5 -8.96875 C 0.5 -10.175781 0.835938 -11.140625 1.515625 -11.859375 C 2.203125 -12.578125 3.144531 -12.9375 4.34375 -12.9375 C 5.53125 -12.9375 6.460938 -12.578125 7.140625 -11.859375 C 7.828125 -11.140625 8.171875 -10.175781 8.171875 -8.96875 L 8.171875 -3.828125 C 8.171875 -1.179688 6.894531 0.140625 4.34375 0.140625 Z M 4.34375 -2.21875 C 4.582031 -2.21875 4.757812 -2.304688 4.875 -2.484375 C 4.988281 -2.660156 5.046875 -2.898438 5.046875 -3.203125 L 5.046875 -9.453125 C 5.046875 -10.203125 4.8125 -10.578125 4.34375 -10.578125 C 3.863281 -10.578125 3.625 -10.203125 3.625 -9.453125 L 3.625 -3.203125 C 3.625 -2.898438 3.679688 -2.660156 3.796875 -2.484375 C 3.910156 -2.304688 4.09375 -2.21875 4.34375 -2.21875 Z M 4.34375 -2.21875 "/></g></g></g><g fill="#ef8121" fill-opacity="0.4"><g transform="translate(52.234308, 21.990658)"><g><path d="M 0.609375 -12.796875 L 3.71875 -12.796875 L 3.71875 -12.109375 C 4.164062 -12.660156 4.78125 -12.9375 5.5625 -12.9375 C 6.550781 -12.9375 7.238281 -12.601562 7.625 -11.9375 C 8.019531 -11.269531 8.21875 -10.347656 8.21875 -9.171875 L 8.21875 -4.4375 C 8.21875 -3.4375 8.160156 -2.617188 8.046875 -1.984375 C 7.929688 -1.347656 7.671875 -0.832031 7.265625 -0.4375 C 6.867188 -0.0507812 6.269531 0.140625 5.46875 0.140625 C 4.695312 0.140625 4.113281 -0.0703125 3.71875 -0.5 L 3.71875 2.546875 L 0.609375 2.546875 Z M 4.453125 -2.234375 C 4.734375 -2.234375 4.914062 -2.359375 5 -2.609375 C 5.082031 -2.867188 5.125 -3.242188 5.125 -3.734375 L 5.125 -9.171875 C 5.125 -9.617188 5.082031 -9.957031 5 -10.1875 C 4.914062 -10.425781 4.726562 -10.546875 4.4375 -10.546875 C 3.957031 -10.546875 3.71875 -10.101562 3.71875 -9.21875 L 3.71875 -3.609375 C 3.71875 -3.171875 3.765625 -2.832031 3.859375 -2.59375 C 3.960938 -2.351562 4.160156 -2.234375 4.453125 -2.234375 Z M 4.453125 -2.234375 "/></g></g></g><g fill="#ef8121" fill-opacity="1"><g transform="translate(26.662467, 21.990658)"><g><path d="M 4.234375 0.140625 C 2.867188 0.140625 1.878906 -0.195312 1.265625 -0.875 C 0.660156 -1.550781 0.359375 -2.640625 0.359375 -4.140625 L 0.359375 -5.609375 L 3.328125 -5.609375 L 3.328125 -3.734375 C 3.328125 -2.992188 3.5625 -2.625 4.03125 -2.625 C 4.300781 -2.625 4.488281 -2.703125 4.59375 -2.859375 C 4.695312 -3.015625 4.75 -3.28125 4.75 -3.65625 C 4.75 -4.144531 4.691406 -4.546875 4.578125 -4.859375 C 4.460938 -5.179688 4.3125 -5.453125 4.125 -5.671875 C 3.945312 -5.890625 3.628906 -6.222656 3.171875 -6.671875 L 1.875 -7.96875 C 0.863281 -8.945312 0.359375 -10.03125 0.359375 -11.21875 C 0.359375 -12.5 0.65625 -13.472656 1.25 -14.140625 C 1.84375 -14.816406 2.703125 -15.15625 3.828125 -15.15625 C 5.179688 -15.15625 6.15625 -14.796875 6.75 -14.078125 C 7.34375 -13.367188 7.640625 -12.25 7.640625 -10.71875 L 4.578125 -10.71875 L 4.5625 -11.75 C 4.5625 -11.945312 4.503906 -12.101562 4.390625 -12.21875 C 4.285156 -12.332031 4.132812 -12.390625 3.9375 -12.390625 C 3.695312 -12.390625 3.519531 -12.328125 3.40625 -12.203125 C 3.289062 -12.078125 3.234375 -11.898438 3.234375 -11.671875 C 3.234375 -11.179688 3.515625 -10.675781 4.078125 -10.15625 L 5.828125 -8.484375 C 6.234375 -8.085938 6.566406 -7.707031 6.828125 -7.34375 C 7.097656 -6.988281 7.316406 -6.570312 7.484375 -6.09375 C 7.648438 -5.613281 7.734375 -5.039062 7.734375 -4.375 C 7.734375 -2.894531 7.460938 -1.769531 6.921875 -1 C 6.378906 -0.238281 5.484375 0.140625 4.234375 0.140625 Z M 4.234375 0.140625 "/></g></g></g><g fill="#ef8121" fill-opacity="1"><g transform="translate(34.720306, 21.990658)"><g><path d="M 0.609375 -15.109375 L 3.765625 -15.109375 L 3.765625 -11.546875 C 4.085938 -12.472656 4.707031 -12.9375 5.625 -12.9375 C 6.488281 -12.9375 7.140625 -12.660156 7.578125 -12.109375 C 8.023438 -11.566406 8.25 -10.816406 8.25 -9.859375 L 8.25 0 L 5.1875 0 L 5.1875 -9.671875 C 5.1875 -9.953125 5.125 -10.175781 5 -10.34375 C 4.875 -10.519531 4.6875 -10.609375 4.4375 -10.609375 C 4.226562 -10.609375 4.0625 -10.519531 3.9375 -10.34375 C 3.820312 -10.164062 3.765625 -9.945312 3.765625 -9.6875 L 3.765625 0 L 0.609375 0 Z M 0.609375 -15.109375 "/></g></g></g><g fill="#ef8121" fill-opacity="1"><g transform="translate(43.547222, 21.990658)"><g><path d="M 4.34375 0.140625 C 1.78125 0.140625 0.5 -1.179688 0.5 -3.828125 L 0.5 -8.96875 C 0.5 -10.175781 0.835938 -11.140625 1.515625 -11.859375 C 2.203125 -12.578125 3.144531 -12.9375 4.34375 -12.9375 C 5.53125 -12.9375 6.460938 -12.578125 7.140625 -11.859375 C 7.828125 -11.140625 8.171875 -10.175781 8.171875 -8.96875 L 8.171875 -3.828125 C 8.171875 -1.179688 6.894531 0.140625 4.34375 0.140625 Z M 4.34375 -2.21875 C 4.582031 -2.21875 4.757812 -2.304688 4.875 -2.484375 C 4.988281 -2.660156 5.046875 -2.898438 5.046875 -3.203125 L 5.046875 -9.453125 C 5.046875 -10.203125 4.8125 -10.578125 4.34375 -10.578125 C 3.863281 -10.578125 3.625 -10.203125 3.625 -9.453125 L 3.625 -3.203125 C 3.625 -2.898438 3.679688 -2.660156 3.796875 -2.484375 C 3.910156 -2.304688 4.09375 -2.21875 4.34375 -2.21875 Z M 4.34375 -2.21875 "/></g></g></g><g fill="#ef8121" fill-opacity="1"><g transform="translate(52.234308, 21.990658)"><g><path d="M 0.609375 -12.796875 L 3.71875 -12.796875 L 3.71875 -12.109375 C 4.164062 -12.660156 4.78125 -12.9375 5.5625 -12.9375 C 6.550781 -12.9375 7.238281 -12.601562 7.625 -11.9375 C 8.019531 -11.269531 8.21875 -10.347656 8.21875 -9.171875 L 8.21875 -4.4375 C 8.21875 -3.4375 8.160156 -2.617188 8.046875 -1.984375 C 7.929688 -1.347656 7.671875 -0.832031 7.265625 -0.4375 C 6.867188 -0.0507812 6.269531 0.140625 5.46875 0.140625 C 4.695312 0.140625 4.113281 -0.0703125 3.71875 -0.5 L 3.71875 2.546875 L 0.609375 2.546875 Z M 4.453125 -2.234375 C 4.734375 -2.234375 4.914062 -2.359375 5 -2.609375 C 5.082031 -2.867188 5.125 -3.242188 5.125 -3.734375 L 5.125 -9.171875 C 5.125 -9.617188 5.082031 -9.957031 5 -10.1875 C 4.914062 -10.425781 4.726562 -10.546875 4.4375 -10.546875 C 3.957031 -10.546875 3.71875 -10.101562 3.71875 -9.21875 L 3.71875 -3.609375 C 3.71875 -3.171875 3.765625 -2.832031 3.859375 -2.59375 C 3.960938 -2.351562 4.160156 -2.234375 4.453125 -2.234375 Z M 4.453125 -2.234375 "/></g></g></g><g fill="#1c486f" fill-opacity="1"><g transform="translate(62.816975, 21.990658)"><g><path d="M 0.671875 0 L 0.671875 -15.015625 L 3.765625 -15.015625 L 5.140625 -7.828125 L 5.140625 -15.015625 L 8.046875 -15.015625 L 8.046875 0 L 5.109375 0 L 3.609375 -7.515625 L 3.609375 0 Z M 0.671875 0 "/></g></g></g><g fill="#1c486f" fill-opacity="1"><g transform="translate(71.521537, 21.990658)"><g><path d="M 4.203125 0.140625 C 2.878906 0.140625 1.929688 -0.21875 1.359375 -0.9375 C 0.785156 -1.664062 0.5 -2.742188 0.5 -4.171875 L 0.5 -9.3125 C 0.5 -10.488281 0.835938 -11.382812 1.515625 -12 C 2.191406 -12.625 3.140625 -12.9375 4.359375 -12.9375 C 6.816406 -12.9375 8.046875 -11.726562 8.046875 -9.3125 L 8.046875 -8.390625 C 8.046875 -7.460938 8.035156 -6.707031 8.015625 -6.125 L 3.5625 -6.125 L 3.5625 -3.640625 C 3.5625 -3.191406 3.609375 -2.84375 3.703125 -2.59375 C 3.796875 -2.34375 3.992188 -2.21875 4.296875 -2.21875 C 4.535156 -2.21875 4.703125 -2.285156 4.796875 -2.421875 C 4.898438 -2.566406 4.957031 -2.726562 4.96875 -2.90625 C 4.988281 -3.09375 5 -3.359375 5 -3.703125 L 5 -4.953125 L 8.046875 -4.953125 L 8.046875 -4.21875 C 8.046875 -2.71875 7.753906 -1.613281 7.171875 -0.90625 C 6.597656 -0.207031 5.609375 0.140625 4.203125 0.140625 Z M 5 -7.640625 L 5 -9.28125 C 5 -10.207031 4.769531 -10.671875 4.3125 -10.671875 C 3.800781 -10.671875 3.546875 -10.207031 3.546875 -9.28125 L 3.546875 -7.640625 Z M 5 -7.640625 "/></g></g></g><g fill="#1c486f" fill-opacity="1"><g transform="translate(80.05131, 21.990658)"><g><path d="M 4.125 0.140625 C 1.59375 0.140625 0.328125 -1.140625 0.328125 -3.703125 L 0.34375 -4.71875 L 3.40625 -4.71875 L 3.421875 -3.21875 C 3.421875 -2.914062 3.476562 -2.6875 3.59375 -2.53125 C 3.71875 -2.375 3.910156 -2.296875 4.171875 -2.296875 C 4.585938 -2.296875 4.796875 -2.625 4.796875 -3.28125 C 4.796875 -3.769531 4.695312 -4.15625 4.5 -4.4375 C 4.3125 -4.71875 4.003906 -5.015625 3.578125 -5.328125 L 1.953125 -6.59375 C 1.398438 -7.019531 1 -7.460938 0.75 -7.921875 C 0.507812 -8.390625 0.390625 -9.039062 0.390625 -9.875 C 0.390625 -10.53125 0.5625 -11.085938 0.90625 -11.546875 C 1.25 -12.003906 1.703125 -12.347656 2.265625 -12.578125 C 2.835938 -12.816406 3.472656 -12.9375 4.171875 -12.9375 C 6.660156 -12.9375 7.90625 -11.703125 7.90625 -9.234375 L 7.90625 -8.984375 L 4.734375 -8.984375 L 4.734375 -9.46875 C 4.734375 -9.78125 4.679688 -10.039062 4.578125 -10.25 C 4.484375 -10.46875 4.320312 -10.578125 4.09375 -10.578125 C 3.882812 -10.578125 3.722656 -10.515625 3.609375 -10.390625 C 3.492188 -10.265625 3.4375 -10.097656 3.4375 -9.890625 C 3.4375 -9.429688 3.617188 -9.070312 3.984375 -8.8125 L 5.875 -7.4375 C 6.550781 -6.925781 7.066406 -6.375 7.421875 -5.78125 C 7.785156 -5.195312 7.96875 -4.457031 7.96875 -3.5625 C 7.96875 -2.375 7.628906 -1.457031 6.953125 -0.8125 C 6.273438 -0.175781 5.332031 0.140625 4.125 0.140625 Z M 4.125 0.140625 "/></g></g></g><g fill="#1c486f" fill-opacity="1"><g transform="translate(88.353854, 21.990658)"><g><path d="M 3.25 0.140625 C 2.445312 0.140625 1.894531 -0.0234375 1.59375 -0.359375 C 1.289062 -0.703125 1.140625 -1.25 1.140625 -2 L 1.140625 -9.984375 L 0.28125 -9.984375 L 0.28125 -12.3125 L 1.140625 -12.3125 L 1.140625 -15.015625 L 4.109375 -15.015625 L 4.109375 -12.3125 L 4.984375 -12.3125 L 4.984375 -9.984375 L 4.109375 -9.984375 L 4.109375 -2.796875 C 4.109375 -2.578125 4.125 -2.414062 4.15625 -2.3125 C 4.195312 -2.207031 4.289062 -2.15625 4.4375 -2.15625 C 4.550781 -2.15625 4.660156 -2.160156 4.765625 -2.171875 C 4.878906 -2.179688 4.953125 -2.1875 4.984375 -2.1875 L 4.984375 -0.09375 C 4.804688 -0.0390625 4.550781 0.0078125 4.21875 0.0625 C 3.882812 0.113281 3.5625 0.140625 3.25 0.140625 Z M 3.25 0.140625 "/></g></g></g></svg>