<svg xmlns="http://www.w3.org/2000/svg" xmlns:xlink="http://www.w3.org/1999/xlink" width="500" zoomAndPan="magnify" viewBox="0 0 375 374.999991" height="500" preserveAspectRatio="xMidYMid meet" version="1.0"><defs><clipPath id="b4fe61a078"><path d="M 16 22.625 L 308 22.625 L 308 291 L 16 291 Z M 16 22.625 " clip-rule="nonzero"/></clipPath><clipPath id="12c48e7e86"><path d="M 234 227 L 359 227 L 359 352.625 L 234 352.625 Z M 234 227 " clip-rule="nonzero"/></clipPath><clipPath id="7c5f01502e"><path d="M 21.664062 182.839844 L 25.960938 182.839844 L 25.960938 186.523438 L 21.664062 186.523438 Z M 21.664062 182.839844 " clip-rule="nonzero"/></clipPath><clipPath id="cd02b539b7"><path d="M 25.949219 184.125 C 24.074219 187.199219 22.273438 186.601562 21.898438 186 C 21.449219 185.324219 21.824219 183.523438 22.425781 183.074219 C 23.023438 182.550781 25.425781 183.226562 25.425781 183.226562 " clip-rule="nonzero"/></clipPath></defs><path fill="#000000" d="M 213.5 106.644531 L 296.417969 106.644531 L 213.5 36.191406 Z M 213.5 106.644531 " fill-opacity="1" fill-rule="nonzero"/><g clip-path="url(#b4fe61a078)"><path fill="#000000" d="M 222.886719 272.664062 L 33.757812 272.664062 L 33.757812 40.183594 L 185.566406 40.183594 L 185.566406 117.238281 C 185.566406 126.824219 193.335938 134.597656 202.914062 134.597656 L 289.757812 134.597656 L 289.757812 214.847656 C 291.957031 214.65625 294.171875 214.539062 296.417969 214.539062 C 300.097656 214.539062 303.714844 214.816406 307.257812 215.328125 L 307.257812 130.539062 C 307.257812 123.097656 301.234375 117.066406 293.796875 117.066406 L 210.894531 117.066406 C 206.582031 117.066406 203.085938 113.570312 203.085938 109.253906 L 203.085938 36.121094 C 203.085938 28.679688 197.058594 22.648438 189.625 22.648438 L 23.660156 22.648438 C 19.5625 22.648438 16.238281 25.976562 16.238281 30.078125 L 16.238281 282.769531 C 16.238281 286.871094 19.5625 290.199219 23.660156 290.199219 L 220.8125 290.199219 C 220.8125 284.164062 221.542969 278.296875 222.886719 272.664062 Z M 222.886719 272.664062 " fill-opacity="1" fill-rule="nonzero"/></g><path fill="#000000" d="M 170.695312 138.308594 C 170.695312 139.320312 170.59375 140.324219 170.398438 141.320312 C 170.199219 142.3125 169.90625 143.277344 169.519531 144.214844 C 169.132812 145.148438 168.660156 146.039062 168.097656 146.878906 C 167.535156 147.722656 166.894531 148.5 166.179688 149.21875 C 165.464844 149.933594 164.683594 150.574219 163.84375 151.136719 C 163 151.699219 162.113281 152.175781 161.175781 152.5625 C 160.242188 152.949219 159.277344 153.242188 158.285156 153.441406 C 157.292969 153.636719 156.289062 153.738281 155.277344 153.738281 C 154.265625 153.738281 153.261719 153.636719 152.269531 153.441406 C 151.277344 153.242188 150.3125 152.949219 149.378906 152.5625 C 148.441406 152.175781 147.554688 151.699219 146.710938 151.136719 C 145.871094 150.574219 145.09375 149.933594 144.375 149.21875 C 143.660156 148.5 143.019531 147.722656 142.460938 146.878906 C 141.898438 146.039062 141.421875 145.148438 141.035156 144.214844 C 140.648438 143.277344 140.355469 142.3125 140.15625 141.320312 C 139.960938 140.324219 139.859375 139.320312 139.859375 138.308594 C 139.859375 137.296875 139.960938 136.292969 140.15625 135.300781 C 140.355469 134.304688 140.648438 133.339844 141.035156 132.40625 C 141.421875 131.46875 141.898438 130.578125 142.460938 129.738281 C 143.019531 128.894531 143.660156 128.117188 144.375 127.398438 C 145.09375 126.683594 145.871094 126.042969 146.710938 125.480469 C 147.554688 124.917969 148.441406 124.441406 149.378906 124.054688 C 150.3125 123.667969 151.277344 123.375 152.269531 123.175781 C 153.261719 122.980469 154.265625 122.878906 155.277344 122.878906 C 156.289062 122.878906 157.292969 122.980469 158.285156 123.175781 C 159.277344 123.375 160.242188 123.667969 161.175781 124.054688 C 162.113281 124.441406 163 124.917969 163.84375 125.480469 C 164.683594 126.042969 165.464844 126.683594 166.179688 127.398438 C 166.894531 128.117188 167.535156 128.894531 168.097656 129.738281 C 168.660156 130.578125 169.132812 131.46875 169.519531 132.40625 C 169.90625 133.339844 170.199219 134.304688 170.398438 135.300781 C 170.59375 136.292969 170.695312 137.296875 170.695312 138.308594 Z M 170.695312 138.308594 " fill-opacity="1" fill-rule="nonzero"/><path fill="#000000" d="M 246.902344 233.097656 L 222.828125 187.765625 C 221.589844 185.4375 218.609375 184.6875 216.417969 186.15625 L 184.828125 207.355469 C 182.359375 209.011719 178.992188 207.828125 178.101562 204.992188 L 168.019531 172.886719 C 167.238281 170.394531 164.488281 169.109375 162.074219 170.105469 L 136.246094 180.789062 C 134.316406 181.589844 132.089844 180.9375 130.894531 179.21875 L 113.972656 154.914062 C 111.992188 152.070312 107.667969 152.480469 106.253906 155.648438 L 63.792969 250.902344 C 62.480469 253.847656 64.632812 257.171875 67.855469 257.171875 L 228.410156 257.171875 C 232.90625 247.941406 239.230469 239.765625 246.902344 233.097656 Z M 246.902344 233.097656 " fill-opacity="1" fill-rule="nonzero"/><g clip-path="url(#12c48e7e86)"><path fill="#000000" d="M 296.417969 227.796875 C 261.980469 227.796875 234.0625 255.734375 234.0625 290.199219 C 234.0625 324.660156 261.980469 352.597656 296.417969 352.597656 C 330.855469 352.597656 358.769531 324.660156 358.769531 290.199219 C 358.769531 255.734375 330.855469 227.796875 296.417969 227.796875 Z M 285.894531 256.0625 C 285.894531 249.90625 291.175781 244.988281 297.445312 245.566406 C 302.921875 246.101562 306.941406 250.996094 306.941406 256.5 L 306.941406 293.863281 C 306.941406 299.679688 302.230469 304.394531 296.417969 304.394531 C 290.605469 304.394531 285.894531 299.679688 285.894531 293.863281 Z M 296.417969 334.875 C 290.429688 334.875 285.574219 330.015625 285.574219 324.023438 C 285.574219 318.03125 290.429688 313.175781 296.417969 313.175781 C 302.40625 313.175781 307.257812 318.03125 307.257812 324.023438 C 307.257812 330.015625 302.40625 334.875 296.417969 334.875 Z M 296.417969 334.875 " fill-opacity="1" fill-rule="nonzero"/></g><g clip-path="url(#7c5f01502e)"><g clip-path="url(#cd02b539b7)"><path fill="#000000" d="M 18.898438 180.074219 L 29.03125 180.074219 L 29.03125 189.898438 L 18.898438 189.898438 Z M 18.898438 180.074219 " fill-opacity="1" fill-rule="nonzero"/></g></g></svg>