<svg xmlns="http://www.w3.org/2000/svg" xmlns:xlink="http://www.w3.org/1999/xlink" width="500" zoomAndPan="magnify" viewBox="0 0 375 374.999991" height="500" preserveAspectRatio="xMidYMid meet" version="1.0"><defs><clipPath id="bee48a9bb5"><path d="M 9.027344 117 L 365 117 L 365 288 L 9.027344 288 Z M 9.027344 117 " clip-rule="nonzero"/></clipPath><clipPath id="4d5aef9d81"><path d="M 9.027344 10 L 366.027344 10 L 366.027344 366.027344 L 9.027344 366.027344 Z M 9.027344 10 " clip-rule="nonzero"/></clipPath><clipPath id="a911efdc68"><path d="M 16.488281 307.300781 L 20.789062 307.300781 L 20.789062 310.949219 L 16.488281 310.949219 Z M 16.488281 307.300781 " clip-rule="nonzero"/></clipPath><clipPath id="96f3804b1b"><path d="M 20.773438 308.625 C 18.824219 311.625 17.101562 311.023438 16.648438 310.425781 C 16.273438 309.75 16.648438 307.949219 17.25 307.5 C 17.773438 307.050781 20.175781 307.648438 20.175781 307.648438 " clip-rule="nonzero"/></clipPath></defs><g clip-path="url(#bee48a9bb5)"><path fill="#231f20" d="M 17.527344 287.996094 C 16.402344 288.011719 15.320312 287.796875 14.28125 287.351562 C 13.246094 286.910156 12.34375 286.273438 11.578125 285.449219 C 11.179688 285.050781 10.824219 284.621094 10.511719 284.15625 C 10.199219 283.691406 9.933594 283.199219 9.71875 282.679688 C 9.5 282.164062 9.339844 281.628906 9.230469 281.078125 C 9.117188 280.53125 9.0625 279.972656 9.0625 279.414062 C 9.0625 278.851562 9.117188 278.296875 9.230469 277.746094 C 9.339844 277.195312 9.5 276.660156 9.71875 276.144531 C 9.933594 275.625 10.199219 275.132812 10.511719 274.667969 C 10.824219 274.203125 11.179688 273.773438 11.578125 273.378906 L 116.128906 171.378906 C 116.519531 170.992188 116.949219 170.648438 117.410156 170.34375 C 117.867188 170.042969 118.355469 169.789062 118.863281 169.578125 C 119.375 169.371094 119.898438 169.214844 120.441406 169.105469 C 120.980469 169 121.527344 168.949219 122.078125 168.949219 C 122.628906 168.949219 123.175781 169 123.714844 169.105469 C 124.253906 169.214844 124.78125 169.371094 125.292969 169.578125 C 125.800781 169.789062 126.285156 170.042969 126.746094 170.34375 C 127.207031 170.648438 127.632812 170.992188 128.027344 171.378906 L 168.316406 210.988281 L 267.769531 119.527344 C 268.160156 119.175781 268.585938 118.863281 269.035156 118.585938 C 269.488281 118.3125 269.960938 118.078125 270.453125 117.890625 C 270.949219 117.703125 271.453125 117.558594 271.976562 117.464844 C 272.496094 117.367188 273.019531 117.320312 273.546875 117.320312 C 274.078125 117.320312 274.601562 117.367188 275.121094 117.464844 C 275.640625 117.558594 276.148438 117.703125 276.640625 117.890625 C 277.136719 118.078125 277.609375 118.3125 278.058594 118.585938 C 278.511719 118.863281 278.933594 119.175781 279.328125 119.527344 L 362.289062 196.539062 C 362.652344 196.925781 362.976562 197.347656 363.261719 197.796875 C 363.546875 198.25 363.789062 198.722656 363.984375 199.21875 C 364.183594 199.714844 364.328125 200.226562 364.429688 200.75 C 364.53125 201.273438 364.582031 201.800781 364.582031 202.335938 C 364.582031 202.871094 364.53125 203.398438 364.433594 203.921875 C 364.335938 204.445312 364.1875 204.957031 363.992188 205.453125 C 363.796875 205.949219 363.558594 206.425781 363.273438 206.875 C 362.988281 207.328125 362.664062 207.75 362.300781 208.140625 C 361.9375 208.53125 361.539062 208.882812 361.109375 209.199219 C 360.679688 209.515625 360.222656 209.785156 359.742188 210.015625 C 359.261719 210.246094 358.761719 210.429688 358.246094 210.566406 C 357.730469 210.703125 357.207031 210.789062 356.671875 210.824219 C 356.140625 210.863281 355.609375 210.847656 355.082031 210.785156 C 354.550781 210.722656 354.03125 210.613281 353.523438 210.453125 C 353.011719 210.289062 352.523438 210.082031 352.054688 209.832031 C 351.585938 209.578125 351.140625 209.285156 350.726562 208.949219 L 274.058594 137.378906 L 174.4375 229.007812 C 174.042969 229.371094 173.613281 229.695312 173.15625 229.980469 C 172.699219 230.265625 172.222656 230.503906 171.71875 230.699219 C 171.21875 230.898438 170.703125 231.042969 170.175781 231.144531 C 169.644531 231.242188 169.109375 231.292969 168.574219 231.292969 C 168.035156 231.292969 167.5 231.242188 166.972656 231.144531 C 166.441406 231.042969 165.925781 230.898438 165.425781 230.699219 C 164.925781 230.503906 164.445312 230.265625 163.988281 229.980469 C 163.53125 229.695312 163.105469 229.371094 162.707031 229.007812 L 122.585938 188.378906 L 23.988281 284.9375 C 23.1875 285.898438 22.222656 286.644531 21.09375 287.179688 C 19.964844 287.714844 18.777344 287.988281 17.527344 287.996094 Z M 17.527344 287.996094 " fill-opacity="1" fill-rule="nonzero"/></g><path fill="#231f20" d="M 102.527344 133.808594 C 101.316406 133.8125 100.109375 133.757812 98.902344 133.644531 C 97.699219 133.53125 96.503906 133.359375 95.3125 133.128906 C 94.125 132.898438 92.953125 132.609375 91.792969 132.261719 C 90.632812 131.914062 89.492188 131.511719 88.371094 131.054688 C 87.25 130.59375 86.15625 130.082031 85.085938 129.515625 C 84.015625 128.949219 82.976562 128.332031 81.96875 127.660156 C 80.960938 126.992188 79.988281 126.277344 79.046875 125.511719 C 78.109375 124.746094 77.210938 123.9375 76.351562 123.082031 C 75.496094 122.230469 74.679688 121.335938 73.910156 120.402344 C 73.136719 119.46875 72.414062 118.5 71.742188 117.496094 C 71.066406 116.492188 70.441406 115.457031 69.867188 114.390625 C 69.292969 113.324219 68.773438 112.230469 68.308594 111.113281 C 67.84375 109.996094 67.433594 108.859375 67.078125 107.699219 C 66.726562 106.542969 66.429688 105.371094 66.191406 104.183594 C 65.953125 102.996094 65.773438 101.800781 65.652344 100.597656 C 65.53125 99.394531 65.46875 98.183594 65.46875 96.976562 C 65.464844 95.765625 65.523438 94.554688 65.640625 93.351562 C 65.757812 92.148438 65.933594 90.949219 66.167969 89.761719 C 66.402344 88.574219 66.695312 87.402344 67.046875 86.242188 C 67.398438 85.085938 67.804688 83.945312 68.265625 82.828125 C 68.726562 81.707031 69.242188 80.613281 69.8125 79.546875 C 70.382812 78.480469 71.003906 77.441406 71.675781 76.433594 C 72.347656 75.429688 73.070312 74.457031 73.835938 73.519531 C 74.605469 72.585938 75.417969 71.6875 76.273438 70.832031 C 77.128906 69.976562 78.023438 69.164062 78.960938 68.398438 C 79.898438 67.628906 80.867188 66.910156 81.875 66.238281 C 82.882812 65.566406 83.917969 64.945312 84.988281 64.375 C 86.054688 63.804688 87.148438 63.289062 88.265625 62.824219 C 89.386719 62.363281 90.523438 61.957031 91.683594 61.605469 C 92.84375 61.257812 94.015625 60.964844 95.203125 60.730469 C 96.390625 60.492188 97.585938 60.316406 98.792969 60.199219 C 99.996094 60.082031 101.203125 60.027344 102.414062 60.027344 C 103.625 60.03125 104.832031 60.089844 106.039062 60.210938 C 107.242188 60.332031 108.4375 60.511719 109.625 60.75 C 110.8125 60.988281 111.984375 61.285156 113.140625 61.640625 C 114.296875 61.992188 115.4375 62.402344 116.554688 62.867188 C 117.671875 63.335938 118.761719 63.855469 119.828125 64.425781 C 120.894531 65 121.929688 65.625 122.933594 66.300781 C 123.941406 66.976562 124.910156 67.699219 125.84375 68.46875 C 126.777344 69.238281 127.667969 70.054688 128.523438 70.914062 C 129.375 71.773438 130.1875 72.671875 130.949219 73.609375 C 131.714844 74.546875 132.433594 75.519531 133.101562 76.527344 C 133.769531 77.539062 134.386719 78.578125 134.957031 79.648438 C 135.523438 80.714844 136.035156 81.8125 136.492188 82.929688 C 136.953125 84.050781 137.355469 85.191406 137.703125 86.351562 C 138.050781 87.511719 138.339844 88.683594 138.570312 89.875 C 138.800781 91.0625 138.972656 92.257812 139.085938 93.464844 C 139.199219 94.667969 139.253906 95.878906 139.246094 97.085938 C 139.242188 98.289062 139.179688 99.488281 139.054688 100.683594 C 138.933594 101.875 138.753906 103.0625 138.515625 104.238281 C 138.277344 105.417969 137.980469 106.578125 137.628906 107.726562 C 137.277344 108.875 136.871094 110.003906 136.40625 111.113281 C 135.945312 112.222656 135.429688 113.304688 134.863281 114.363281 C 134.292969 115.421875 133.675781 116.449219 133.007812 117.449219 C 132.339844 118.445312 131.625 119.410156 130.859375 120.335938 C 130.097656 121.265625 129.292969 122.152344 128.441406 123.003906 C 127.59375 123.851562 126.707031 124.660156 125.777344 125.421875 C 124.847656 126.183594 123.886719 126.898438 122.886719 127.566406 C 121.890625 128.234375 120.863281 128.855469 119.804688 129.421875 C 118.746094 129.992188 117.664062 130.503906 116.554688 130.96875 C 115.445312 131.429688 114.316406 131.835938 113.167969 132.1875 C 112.019531 132.539062 110.855469 132.835938 109.679688 133.074219 C 108.503906 133.3125 107.316406 133.492188 106.121094 133.617188 C 104.925781 133.738281 103.730469 133.800781 102.527344 133.808594 Z M 102.527344 77.199219 C 101.875 77.191406 101.222656 77.21875 100.574219 77.277344 C 99.925781 77.335938 99.277344 77.425781 98.636719 77.546875 C 97.996094 77.671875 97.363281 77.824219 96.738281 78.007812 C 96.109375 78.191406 95.496094 78.40625 94.890625 78.652344 C 94.285156 78.898438 93.695312 79.171875 93.117188 79.472656 C 92.539062 79.777344 91.976562 80.109375 91.429688 80.46875 C 90.886719 80.824219 90.359375 81.210938 89.851562 81.621094 C 89.34375 82.03125 88.859375 82.464844 88.394531 82.921875 C 87.929688 83.382812 87.488281 83.859375 87.070312 84.363281 C 86.652344 84.863281 86.261719 85.386719 85.894531 85.925781 C 85.527344 86.464844 85.191406 87.023438 84.878906 87.59375 C 84.566406 88.167969 84.285156 88.757812 84.03125 89.359375 C 83.777344 89.960938 83.554688 90.570312 83.359375 91.195312 C 83.167969 91.816406 83.003906 92.449219 82.875 93.089844 C 82.742188 93.726562 82.644531 94.371094 82.574219 95.019531 C 82.507812 95.671875 82.472656 96.320312 82.46875 96.972656 C 82.464844 97.625 82.492188 98.277344 82.554688 98.925781 C 82.613281 99.578125 82.707031 100.222656 82.828125 100.863281 C 82.953125 101.503906 83.109375 102.136719 83.292969 102.761719 C 83.480469 103.386719 83.695312 104.003906 83.945312 104.605469 C 84.191406 105.210938 84.464844 105.800781 84.769531 106.378906 C 85.078125 106.957031 85.410156 107.515625 85.769531 108.058594 C 86.128906 108.605469 86.515625 109.128906 86.925781 109.636719 C 87.339844 110.144531 87.773438 110.628906 88.234375 111.089844 C 88.691406 111.554688 89.171875 111.992188 89.675781 112.410156 C 90.179688 112.828125 90.703125 113.214844 91.242188 113.582031 C 91.785156 113.945312 92.339844 114.285156 92.914062 114.59375 C 93.488281 114.902344 94.078125 115.183594 94.679688 115.4375 C 95.28125 115.6875 95.894531 115.910156 96.519531 116.101562 C 97.144531 116.292969 97.773438 116.453125 98.414062 116.582031 C 99.054688 116.710938 99.699219 116.808594 100.347656 116.875 C 100.996094 116.941406 101.648438 116.976562 102.300781 116.976562 C 102.953125 116.980469 103.605469 116.949219 104.253906 116.886719 C 104.902344 116.824219 105.546875 116.730469 106.1875 116.605469 C 106.828125 116.480469 107.460938 116.320312 108.085938 116.132812 C 108.710938 115.945312 109.324219 115.726562 109.929688 115.480469 C 110.53125 115.230469 111.121094 114.953125 111.699219 114.648438 C 112.273438 114.339844 112.835938 114.007812 113.378906 113.644531 C 113.921875 113.285156 114.445312 112.894531 114.949219 112.484375 C 115.457031 112.070312 115.941406 111.632812 116.402344 111.171875 C 116.863281 110.710938 117.300781 110.230469 117.71875 109.726562 C 118.132812 109.222656 118.519531 108.699219 118.882812 108.15625 C 119.246094 107.613281 119.582031 107.054688 119.890625 106.480469 C 120.199219 105.902344 120.476562 105.316406 120.726562 104.710938 C 120.976562 104.109375 121.199219 103.496094 121.386719 102.871094 C 121.578125 102.246094 121.738281 101.613281 121.863281 100.976562 C 121.992188 100.335938 122.085938 99.691406 122.152344 99.039062 C 122.214844 98.390625 122.246094 97.742188 122.246094 97.085938 C 122.246094 96.441406 122.214844 95.792969 122.152344 95.148438 C 122.089844 94.503906 121.996094 93.863281 121.871094 93.226562 C 121.742188 92.59375 121.585938 91.964844 121.402344 91.34375 C 121.214844 90.722656 120.996094 90.113281 120.75 89.515625 C 120.503906 88.917969 120.226562 88.332031 119.925781 87.757812 C 119.621094 87.1875 119.289062 86.628906 118.929688 86.089844 C 118.574219 85.550781 118.1875 85.027344 117.78125 84.527344 C 117.371094 84.023438 116.9375 83.542969 116.480469 83.082031 C 116.027344 82.625 115.546875 82.1875 115.050781 81.773438 C 114.550781 81.359375 114.035156 80.972656 113.496094 80.609375 C 112.960938 80.246094 112.40625 79.910156 111.835938 79.601562 C 111.265625 79.292969 110.683594 79.011719 110.085938 78.761719 C 109.488281 78.507812 108.882812 78.285156 108.265625 78.09375 C 107.644531 77.902344 107.019531 77.738281 106.382812 77.609375 C 105.75 77.476562 105.109375 77.378906 104.464844 77.308594 C 103.820312 77.242188 103.175781 77.203125 102.527344 77.199219 Z M 102.527344 77.199219 " fill-opacity="1" fill-rule="nonzero"/><g clip-path="url(#4d5aef9d81)"><path fill="#231f20" d="M 306.527344 366.367188 L 68.527344 366.367188 C 66.601562 366.351562 64.679688 366.242188 62.761719 366.039062 C 60.84375 365.835938 58.941406 365.539062 57.054688 365.152344 C 55.167969 364.761719 53.300781 364.285156 51.460938 363.714844 C 49.617188 363.144531 47.808594 362.488281 46.03125 361.742188 C 44.253906 360.996094 42.515625 360.167969 40.820312 359.253906 C 39.121094 358.339844 37.472656 357.347656 35.875 356.273438 C 34.273438 355.199219 32.730469 354.046875 31.238281 352.824219 C 29.75 351.597656 28.324219 350.304688 26.960938 348.941406 C 25.601562 347.578125 24.304688 346.152344 23.082031 344.664062 C 21.859375 343.175781 20.707031 341.632812 19.632812 340.03125 C 18.558594 338.429688 17.566406 336.78125 16.652344 335.085938 C 15.738281 333.390625 14.90625 331.652344 14.164062 329.875 C 13.417969 328.097656 12.761719 326.285156 12.191406 324.445312 C 11.621094 322.605469 11.140625 320.738281 10.753906 318.851562 C 10.367188 316.964844 10.070312 315.0625 9.867188 313.144531 C 9.664062 311.226562 9.554688 309.304688 9.539062 307.378906 L 9.539062 69.378906 C 9.554688 67.449219 9.664062 65.527344 9.867188 63.613281 C 10.070312 61.695312 10.367188 59.792969 10.753906 57.90625 C 11.140625 56.015625 11.621094 54.152344 12.191406 52.308594 C 12.761719 50.46875 13.417969 48.660156 14.164062 46.882812 C 14.90625 45.105469 15.738281 43.367188 16.652344 41.667969 C 17.566406 39.972656 18.558594 38.324219 19.632812 36.722656 C 20.707031 35.125 21.859375 33.578125 23.082031 32.089844 C 24.304688 30.601562 25.601562 29.175781 26.960938 27.8125 C 28.324219 26.449219 29.75 25.15625 31.238281 23.933594 C 32.730469 22.707031 34.273438 21.558594 35.875 20.484375 C 37.472656 19.410156 39.121094 18.414062 40.820312 17.5 C 42.515625 16.585938 44.253906 15.757812 46.03125 15.011719 C 47.808594 14.265625 49.617188 13.609375 51.460938 13.039062 C 53.300781 12.472656 55.167969 11.992188 57.054688 11.605469 C 58.941406 11.214844 60.84375 10.921875 62.761719 10.71875 C 64.679688 10.515625 66.601562 10.402344 68.527344 10.386719 L 306.527344 10.386719 C 308.476562 10.386719 310.421875 10.484375 312.359375 10.675781 C 314.300781 10.867188 316.222656 11.152344 318.136719 11.53125 C 320.046875 11.910156 321.933594 12.382812 323.800781 12.949219 C 325.664062 13.515625 327.496094 14.171875 329.296875 14.917969 C 331.097656 15.664062 332.855469 16.496094 334.574219 17.414062 C 336.292969 18.332031 337.964844 19.332031 339.585938 20.414062 C 341.203125 21.496094 342.769531 22.65625 344.273438 23.894531 C 345.78125 25.128906 347.222656 26.4375 348.601562 27.816406 C 349.980469 29.191406 351.285156 30.636719 352.523438 32.140625 C 353.757812 33.648438 354.917969 35.210938 356 36.832031 C 357.082031 38.453125 358.082031 40.121094 359.003906 41.839844 C 359.921875 43.558594 360.753906 45.316406 361.5 47.117188 C 362.246094 48.917969 362.898438 50.75 363.464844 52.617188 C 364.03125 54.480469 364.503906 56.367188 364.882812 58.28125 C 365.265625 60.191406 365.550781 62.117188 365.742188 64.054688 C 365.933594 65.996094 366.027344 67.9375 366.027344 69.886719 L 366.027344 307.378906 C 366.011719 309.316406 365.898438 311.25 365.695312 313.175781 C 365.488281 315.101562 365.191406 317.015625 364.796875 318.914062 C 364.40625 320.8125 363.921875 322.683594 363.347656 324.535156 C 362.769531 326.386719 362.105469 328.203125 361.351562 329.992188 C 360.601562 331.777344 359.761719 333.519531 358.835938 335.226562 C 357.914062 336.929688 356.910156 338.582031 355.824219 340.1875 C 354.738281 341.796875 353.578125 343.34375 352.339844 344.835938 C 351.105469 346.328125 349.796875 347.757812 348.421875 349.121094 C 347.046875 350.484375 345.605469 351.78125 344.101562 353.003906 C 342.601562 354.226562 341.039062 355.375 339.425781 356.445312 C 337.8125 357.519531 336.148438 358.507812 334.4375 359.417969 C 332.722656 360.328125 330.972656 361.148438 329.179688 361.886719 C 327.386719 362.625 325.5625 363.273438 323.707031 363.832031 C 321.851562 364.394531 319.976562 364.859375 318.074219 365.238281 C 316.171875 365.613281 314.257812 365.894531 312.328125 366.085938 C 310.398438 366.273438 308.464844 366.367188 306.527344 366.367188 Z M 68.527344 27.386719 C 67.136719 27.386719 65.746094 27.457031 64.363281 27.59375 C 62.976562 27.730469 61.601562 27.933594 60.238281 28.203125 C 58.871094 28.476562 57.523438 28.8125 56.191406 29.21875 C 54.859375 29.621094 53.550781 30.089844 52.265625 30.621094 C 50.976562 31.15625 49.722656 31.75 48.492188 32.40625 C 47.265625 33.0625 46.074219 33.777344 44.917969 34.550781 C 43.757812 35.324219 42.640625 36.152344 41.566406 37.035156 C 40.488281 37.917969 39.460938 38.851562 38.476562 39.835938 C 37.492188 40.820312 36.558594 41.851562 35.675781 42.925781 C 34.792969 44.003906 33.964844 45.117188 33.191406 46.277344 C 32.417969 47.433594 31.703125 48.625 31.046875 49.851562 C 30.390625 51.082031 29.796875 52.335938 29.261719 53.625 C 28.730469 54.910156 28.261719 56.21875 27.859375 57.550781 C 27.453125 58.882812 27.117188 60.230469 26.84375 61.597656 C 26.574219 62.960938 26.367188 64.335938 26.234375 65.722656 C 26.097656 67.105469 26.027344 68.496094 26.027344 69.886719 L 26.027344 307.378906 C 26.027344 308.769531 26.097656 310.160156 26.234375 311.542969 C 26.367188 312.929688 26.574219 314.304688 26.84375 315.667969 C 27.117188 317.035156 27.453125 318.382812 27.859375 319.714844 C 28.261719 321.046875 28.730469 322.355469 29.261719 323.640625 C 29.796875 324.925781 30.390625 326.183594 31.046875 327.410156 C 31.703125 328.640625 32.417969 329.832031 33.191406 330.988281 C 33.964844 332.148438 34.792969 333.261719 35.675781 334.339844 C 36.558594 335.414062 37.492188 336.445312 38.476562 337.429688 C 39.460938 338.414062 40.488281 339.347656 41.566406 340.230469 C 42.640625 341.113281 43.757812 341.941406 44.914062 342.714844 C 46.074219 343.488281 47.265625 344.203125 48.492188 344.859375 C 49.722656 345.515625 50.976562 346.109375 52.265625 346.640625 C 53.550781 347.175781 54.859375 347.644531 56.191406 348.046875 C 57.523438 348.453125 58.871094 348.789062 60.238281 349.0625 C 61.601562 349.332031 62.976562 349.535156 64.363281 349.671875 C 65.746094 349.808594 67.136719 349.878906 68.527344 349.878906 L 306.527344 349.878906 C 307.917969 349.878906 309.308594 349.808594 310.695312 349.671875 C 312.078125 349.535156 313.453125 349.332031 314.820312 349.0625 C 316.183594 348.789062 317.53125 348.453125 318.863281 348.046875 C 320.195312 347.644531 321.503906 347.175781 322.792969 346.640625 C 324.078125 346.109375 325.335938 345.515625 326.5625 344.859375 C 327.789062 344.203125 328.980469 343.488281 330.140625 342.714844 C 331.296875 341.941406 332.414062 341.113281 333.488281 340.230469 C 334.566406 339.347656 335.59375 338.414062 336.578125 337.429688 C 337.5625 336.445312 338.496094 335.414062 339.378906 334.339844 C 340.265625 333.261719 341.09375 332.148438 341.863281 330.988281 C 342.636719 329.832031 343.351562 328.640625 344.007812 327.410156 C 344.664062 326.183594 345.261719 324.925781 345.792969 323.640625 C 346.324219 322.355469 346.792969 321.046875 347.199219 319.714844 C 347.601562 318.382812 347.941406 317.035156 348.210938 315.667969 C 348.484375 314.304688 348.6875 312.929688 348.824219 311.542969 C 348.960938 310.160156 349.027344 308.769531 349.027344 307.378906 L 349.027344 69.378906 C 349.027344 67.984375 348.960938 66.597656 348.824219 65.210938 C 348.6875 63.828125 348.484375 62.453125 348.210938 61.085938 C 347.941406 59.722656 347.601562 58.371094 347.199219 57.039062 C 346.792969 55.707031 346.324219 54.398438 345.792969 53.113281 C 345.261719 51.828125 344.664062 50.570312 344.007812 49.34375 C 343.351562 48.117188 342.636719 46.921875 341.863281 45.765625 C 341.09375 44.609375 340.265625 43.492188 339.378906 42.417969 C 338.496094 41.339844 337.5625 40.308594 336.578125 39.324219 C 335.59375 38.339844 334.566406 37.40625 333.488281 36.523438 C 332.414062 35.640625 331.296875 34.8125 330.140625 34.039062 C 328.980469 33.265625 327.789062 32.550781 326.5625 31.894531 C 325.335938 31.238281 324.078125 30.644531 322.792969 30.113281 C 321.503906 29.582031 320.195312 29.113281 318.863281 28.707031 C 317.53125 28.304688 316.183594 27.964844 314.820312 27.695312 C 313.453125 27.421875 312.078125 27.21875 310.695312 27.082031 C 309.308594 26.945312 307.917969 26.878906 306.527344 26.878906 Z M 68.527344 27.386719 " fill-opacity="1" fill-rule="nonzero"/></g><g clip-path="url(#a911efdc68)"><g clip-path="url(#96f3804b1b)"><path fill="#231f20" d="M 13.648438 304.5 L 23.78125 304.5 L 23.78125 314.324219 L 13.648438 314.324219 Z M 13.648438 304.5 " fill-opacity="1" fill-rule="nonzero"/></g></g></svg>